<svg version="1.1" id="Layer_1" xmlns="http://www.w3.org/2000/svg" xmlns:xlink="http://www.w3.org/1999/xlink" x="0px" y="0px"
	 width="100%" viewBox="0 0 1024 1024" enable-background="new 0 0 1024 1024" xml:space="preserve">
<path fill="#000000" opacity="1.000000" stroke="none" 
	d="
M718.787109,403.257324 
	C703.739746,392.383575 689.728699,380.937134 678.151917,366.689819 
	C674.654724,362.385895 670.679199,358.143158 663.869385,359.220551 
	C662.120605,359.497192 660.761780,359.741364 659.536377,360.917877 
	C646.079773,373.837738 632.571838,386.704590 619.186096,399.697479 
	C614.245300,404.493225 614.224304,405.777802 619.871521,409.703674 
	C630.731567,417.253418 640.458008,426.030487 649.503540,435.617645 
	C650.964783,437.166412 652.865662,438.380951 653.499268,440.590790 
	C646.720459,445.346558 633.212769,443.475159 628.154724,437.298706 
	C622.238342,430.074097 616.294434,422.870911 611.512146,414.826569 
	C609.286621,411.082947 606.988281,411.026031 604.054199,413.892639 
	C599.287231,418.549988 594.492981,423.180603 589.642395,427.750610 
	C587.646912,429.630737 587.138916,431.544891 588.736572,433.906647 
	C595.178833,443.430084 598.295593,454.290497 601.569519,465.141876 
	C603.408142,471.235718 602.715393,477.403320 602.751892,483.445435 
	C602.875061,503.860870 597.797363,523.266052 586.310608,540.116516 
	C577.015381,553.752136 565.546204,566.064514 550.004578,572.817200 
	C541.996948,576.296448 538.811768,582.952271 534.341492,589.236328 
	C527.294739,599.142273 522.770630,609.776489 522.193298,621.965820 
	C521.825500,629.730286 523.963440,632.243530 531.551270,631.777405 
	C537.102600,631.436340 541.573730,633.432068 546.006531,636.219788 
	C550.620850,639.121643 551.352600,642.992065 547.442139,646.924316 
	C542.292114,652.102905 535.436096,653.218933 528.615723,652.946716 
	C525.780396,652.833496 523.357483,652.301270 521.476562,654.695679 
	C519.513428,657.194885 520.201904,660.049011 520.947754,662.779236 
	C521.200745,663.705261 522.446838,664.610291 522.309814,665.353638 
	C520.942688,672.770813 525.939087,672.075745 530.557007,672.077942 
	C533.012329,672.079102 535.622864,671.950562 537.205444,674.562805 
	C536.323853,676.762817 534.168152,676.718201 532.558777,676.827148 
	C525.604858,677.298096 518.727356,678.634888 511.699310,678.392456 
	C508.252563,678.273560 506.771881,676.954468 506.998596,673.607239 
	C508.392334,653.028564 506.115356,632.286926 509.762146,611.806946 
	C511.183075,603.827271 514.689819,596.650635 518.227173,589.480652 
	C518.941772,588.032166 520.340515,586.861084 519.955200,584.285400 
	C506.708862,585.452271 493.371216,586.513550 480.376587,582.635437 
	C479.493988,584.426331 480.562988,585.469360 481.203735,586.533142 
	C489.686096,600.614502 493.294647,615.970764 493.291473,632.291321 
	C493.288849,645.790405 493.210083,659.290771 493.386963,672.787720 
	C493.439911,676.827209 492.149963,678.736023 487.950226,678.238464 
	C475.003204,676.704773 461.600830,677.606689 449.616882,670.936829 
	C448.646179,670.396545 447.291138,670.003174 446.251862,670.214844 
	C437.202637,672.057556 429.148468,668.233093 421.009369,665.578552 
	C415.316437,663.721863 409.086426,664.420410 403.714813,661.206543 
	C398.516449,658.096313 393.351288,655.230164 386.855255,654.696899 
	C381.211823,654.233643 376.732086,650.008545 372.301025,646.662659 
	C371.847015,644.481628 375.966309,644.572693 374.361359,642.208923 
	C372.974335,640.166077 371.009094,641.818909 369.297424,641.811890 
	C364.065002,641.790344 360.300354,644.358337 356.811707,648.082214 
	C346.147675,659.465149 333.855530,668.422302 318.275513,671.813782 
	C306.139221,674.455566 294.108154,672.534912 282.138611,670.327454 
	C250.173813,664.432312 221.514099,651.339783 196.820099,630.149475 
	C180.130417,615.827820 166.106659,599.353577 161.427200,577.065186 
	C157.463730,558.187012 160.181183,539.789917 169.166412,522.831848 
	C181.963226,498.680084 207.682968,496.829559 228.304993,507.032867 
	C230.208557,507.974731 231.698380,509.765594 234.595749,509.910919 
	C206.744934,440.363678 200.339371,370.046112 223.920914,298.017639 
	C247.395554,226.315735 289.810303,170.042297 356.065063,132.814743 
	C423.342285,95.012688 494.978729,87.033463 569.588623,103.633331 
	C645.279175,120.473640 701.928040,165.267761 746.377930,227.678101 
	C757.346375,218.450974 767.472412,209.358871 776.093689,198.750290 
	C784.027832,188.987244 793.950500,181.306656 802.860291,172.569412 
	C822.717773,153.096390 843.770691,134.842514 862.205811,113.916954 
	C868.421692,106.861359 875.871399,106.680824 882.781128,113.027992 
	C888.166870,117.975243 893.811462,122.726685 896.833740,129.710876 
	C898.682800,133.984009 898.677246,137.652298 894.647095,140.828018 
	C879.043518,153.123749 865.151306,167.311295 850.769104,180.944824 
	C836.148743,194.803970 821.318726,208.459351 807.651978,223.299438 
	C804.181152,227.068283 798.338745,227.360825 795.132751,231.920746 
	C792.671387,235.421600 789.325928,238.329071 786.219849,241.341949 
	C780.959473,246.444626 775.711609,251.575607 770.193420,256.390930 
	C767.205505,258.998230 766.549072,261.260742 768.436890,264.947266 
	C779.598022,286.744141 786.750061,309.967529 791.343994,333.905487 
	C796.318970,359.829285 797.239746,386.051514 795.468506,412.409363 
	C793.649048,439.484680 787.903198,465.676453 779.011353,491.255493 
	C770.122559,516.825562 757.324951,540.257629 740.677490,561.570435 
	C721.733521,585.823364 700.917725,608.231323 675.718811,626.198853 
	C672.715393,628.340332 669.892517,631.135010 665.923523,631.102112 
	C664.740417,629.836060 665.103821,628.656372 665.399780,627.554077 
	C666.106506,624.921692 665.082397,623.671936 662.538574,622.755127 
	C658.372498,621.253784 658.296753,619.948792 661.857056,617.103455 
	C672.126648,608.896301 683.051208,601.560913 692.505859,592.273621 
	C721.917297,563.382751 746.836243,531.385864 762.310303,492.785370 
	C771.520569,469.810211 777.132202,445.903503 779.802795,421.297882 
	C785.311218,370.544739 778.381836,321.795929 756.360474,275.473114 
	C756.082031,274.887207 755.625305,274.386047 755.075439,273.590118 
	C751.352173,275.309357 749.804321,276.961304 752.212036,281.434326 
	C761.610229,298.894714 766.850220,317.799225 770.234375,337.238342 
	C771.630371,345.257507 772.672791,353.338318 773.867188,361.392395 
	C774.179138,363.496307 774.587036,365.622253 772.992310,368.058411 
	C767.129517,363.660309 761.450562,359.472534 755.849548,355.182983 
	C745.073914,346.930511 735.555359,337.381012 727.310730,326.621521 
	C723.380676,321.492584 719.223511,318.309387 712.525696,321.655090 
	C711.288025,322.273346 709.382141,322.517181 708.151917,322.021820 
	C702.566895,319.772919 698.927490,322.605225 695.477478,326.325439 
	C694.572205,327.301636 693.573853,328.191559 692.618713,329.121643 
	C685.623657,335.933105 685.493713,337.421082 692.946472,344.114594 
	C703.364319,353.471161 714.918152,361.385071 726.221375,369.616760 
	C740.559937,380.058960 752.636047,393.007111 765.239197,405.364929 
	C766.541748,406.642120 767.814270,408.397400 769.407166,408.848175 
	C774.408203,410.263519 774.462646,413.683167 774.064026,417.832855 
	C773.045105,428.439819 772.046936,439.028870 767.345459,448.819641 
	C766.039429,451.539520 767.244324,454.386505 766.640991,457.198303 
	C763.197266,473.247131 757.363892,488.398865 750.185364,503.108276 
	C740.652100,522.643005 729.388977,541.082581 715.511230,557.827698 
	C696.040344,581.321472 673.992188,601.972168 647.832031,617.962708 
	C645.027527,619.677002 642.142334,621.238647 638.517212,622.260620 
	C638.398071,619.278137 640.606873,618.871033 642.112488,617.896545 
	C648.225830,613.940369 655.339111,611.404846 659.984985,605.364441 
	C662.089966,602.627686 663.834656,599.750793 666.567017,597.355164 
	C673.807434,591.007019 683.524109,588.054810 689.551270,580.104248 
	C698.691223,568.047607 711.067017,558.869507 719.438782,546.019348 
	C722.984497,540.576904 729.409424,537.190979 731.814575,530.622314 
	C732.438293,528.919006 733.262268,527.286316 734.037476,525.641602 
	C736.071289,521.326721 737.664307,516.967285 741.225769,513.294800 
	C747.551941,506.771240 747.760254,498.596222 745.132996,490.213501 
	C745.974670,488.906158 747.395508,488.892456 748.683960,488.802002 
	C754.087280,488.422668 754.544678,483.955383 754.572205,480.417419 
	C754.599854,476.875366 751.305542,475.216156 747.830566,475.175934 
	C739.834290,475.083252 731.790222,474.636444 723.850708,475.320740 
	C715.079407,476.076691 709.420410,472.135651 704.891541,465.261383 
	C706.488464,463.175323 708.836548,463.911896 710.844727,463.896057 
	C725.175964,463.782867 739.512085,463.589783 753.837952,463.869751 
	C759.073669,463.972076 761.720276,461.659760 762.596619,457.040436 
	C763.335266,453.146881 766.846863,449.676544 764.526733,445.240692 
	C764.334534,444.873260 764.821228,443.866943 765.271240,443.491119 
	C770.150452,439.416077 767.126221,437.391388 763.413330,435.020905 
	C748.108704,425.249664 733.835388,414.013763 718.787109,403.257324 
M225.354813,396.171143 
	C226.356705,433.078430 234.219086,468.398926 249.532806,502.058899 
	C253.533340,510.852142 258.782776,519.084839 261.774933,528.303345 
	C263.742493,534.365234 267.272766,539.263672 271.411438,543.870361 
	C289.575378,564.088440 309.577362,582.488342 328.727112,601.731201 
	C329.933075,602.943054 331.037903,604.702759 333.637024,603.901733 
	C334.195618,600.923706 331.849274,599.540100 330.135284,597.958740 
	C324.382935,592.651489 318.177734,587.783997 312.814575,582.115479 
	C297.263550,565.679016 281.820953,549.255859 270.675354,529.117310 
	C263.891266,516.859497 257.897583,504.299469 251.952286,491.674164 
	C251.182266,490.038940 249.924255,488.112122 251.911972,485.799316 
	C253.359406,487.352081 255.199142,487.964874 257.255280,487.986572 
	C259.253662,488.007660 261.277374,487.953552 263.241150,488.252716 
	C265.064575,488.530457 268.272064,488.486420 267.323730,491.189056 
	C266.357666,493.942200 266.865295,497.793243 263.204315,499.277405 
	C261.325165,500.039246 261.109863,501.676270 261.085449,503.414642 
	C261.012726,508.598206 264.454163,512.817261 269.581940,514.035217 
	C272.488129,514.725464 275.325165,515.573242 278.366974,515.682861 
	C280.629974,515.764465 282.644684,516.680054 282.860199,519.451599 
	C283.069397,522.141479 283.418335,524.954895 280.457031,526.480652 
	C278.451660,527.513916 275.679779,527.718018 276.611298,531.146667 
	C277.281738,533.614380 278.160950,535.890198 280.562469,537.246521 
	C283.034454,538.642639 285.443390,539.981567 288.453125,540.043213 
	C297.111420,540.220581 305.768860,540.848755 314.421173,540.760742 
	C319.886383,540.705200 324.054352,542.799744 327.808777,546.368286 
	C332.015686,550.367004 331.497711,552.919861 326.047882,554.989075 
	C323.654602,555.897827 320.812439,556.140503 319.167450,560.022339 
	C327.437897,562.453369 334.324341,568.437256 343.593750,565.975220 
	C349.155396,564.497986 350.891083,565.226562 352.459900,569.990234 
	C356.029419,580.828857 360.304962,581.937195 369.365601,574.956055 
	C374.828613,570.746887 378.734863,563.786072 387.164734,564.291931 
	C388.180756,564.352905 389.349213,562.901428 390.349335,562.037842 
	C398.411133,555.076782 406.220642,547.873596 413.122223,539.706238 
	C414.779968,537.744446 414.615997,536.318420 413.618652,534.370361 
	C411.722809,530.667480 409.497009,527.053894 408.188904,523.142090 
	C395.240448,484.421448 400.575775,448.992065 427.550812,417.545776 
	C430.471405,414.141052 434.036652,411.177765 435.985046,407.064392 
	C440.238586,398.084381 448.644379,392.747223 454.701355,385.359863 
	C455.326355,384.597565 456.273865,383.628052 457.912262,384.015167 
	C456.121002,388.518921 452.368988,391.938843 450.645599,397.363617 
	C463.970367,389.912720 477.511353,385.853760 491.607971,383.958771 
	C505.628418,382.074005 519.533325,384.358490 532.953247,387.532990 
	C533.925110,385.204407 533.152649,384.225433 532.623047,383.215546 
	C528.058899,374.512360 524.020935,365.473053 518.767700,357.206512 
	C512.116882,346.740814 511.844666,335.189575 511.133453,323.577698 
	C511.071625,322.567902 511.434387,321.575378 512.469849,321.524719 
	C533.287842,344.224274 546.980469,372.158630 567.862427,394.376434 
	C571.210999,393.298157 572.647522,390.950684 574.396057,388.992981 
	C579.437561,383.348358 579.347351,383.406921 574.024780,378.013977 
	C562.629395,366.467834 553.018738,353.486389 543.920532,340.109711 
	C543.262512,339.142273 541.992126,338.097015 543.506714,336.472229 
	C544.166992,336.964752 544.888794,337.360352 545.430237,337.928009 
	C557.071960,350.134277 570.748657,360.102753 582.760864,371.891815 
	C586.342407,375.406860 589.639160,375.432098 593.208435,372.160706 
	C593.945496,371.485138 594.691345,370.818695 595.415588,370.129669 
	C604.629272,361.364014 604.561768,361.172760 594.209290,353.991455 
	C576.421021,341.652130 558.567688,329.399628 541.000977,316.750549 
	C531.816772,310.137360 523.123901,302.831787 514.345703,295.671478 
	C512.197449,293.919128 510.843994,293.845825 508.964569,295.913361 
	C505.157135,300.101807 501.068542,304.033875 497.239136,308.203217 
	C485.628479,320.844696 474.241302,333.723633 461.354675,345.095734 
	C438.376038,365.373840 414.709869,384.866821 392.905396,406.472534 
	C381.226410,418.045044 370.831024,431.012817 356.659790,439.972351 
	C350.868958,443.633545 340.337402,444.693146 335.620178,440.960266 
	C347.292755,430.750275 358.685211,420.367218 367.811981,407.701843 
	C377.170441,394.715027 386.580719,381.956696 392.036530,366.555481 
	C395.894653,355.664307 394.893585,347.239624 384.663513,340.916260 
	C384.522614,340.829193 384.402374,340.709351 384.268372,340.610352 
	C382.584259,339.366028 381.023712,338.106262 382.512817,335.696594 
	C383.817230,333.585785 385.318848,332.731110 387.913849,333.777527 
	C390.198944,334.698975 392.703827,335.302856 395.159821,335.533051 
	C404.702271,336.427277 409.560547,342.498688 412.107300,350.879547 
	C413.259430,354.671021 413.628662,358.706268 414.270203,362.644409 
	C414.558289,364.412994 414.115234,366.623322 416.250519,367.365570 
	C418.230530,368.053833 419.687469,366.504791 421.030609,365.284271 
	C438.533783,349.378448 456.657440,334.109192 472.692078,316.672119 
	C481.118927,307.508209 490.382050,299.046844 496.853668,288.143555 
	C507.277618,270.581635 509.804565,251.676636 507.308990,231.783295 
	C507.099915,230.116653 506.694702,228.424576 509.538574,227.499222 
	C513.154480,232.494385 515.706238,238.196320 518.266846,243.891479 
	C526.051941,261.206787 533.597717,278.631958 542.084473,295.624573 
	C544.031860,299.523773 546.297668,303.207489 549.372864,306.320282 
	C553.829407,310.831329 555.700073,310.608063 560.021729,306.139740 
	C562.649719,303.422577 561.436951,300.982635 560.407654,298.360718 
	C554.544861,283.426483 545.845398,269.897217 539.122864,255.389511 
	C538.512268,254.071793 537.060547,252.840454 538.074402,250.655197 
	C538.963440,251.422379 539.619690,251.892441 540.161011,252.470184 
	C548.931335,261.830658 557.496216,271.416107 567.372864,279.644958 
	C578.808716,289.172882 578.897461,289.066406 589.477051,278.330170 
	C593.826843,273.915985 593.715820,271.289612 589.113464,267.072998 
	C577.567505,256.494720 566.153076,245.770111 554.485840,235.327728 
	C541.079041,223.328461 528.907837,209.991394 514.785339,198.776230 
	C513.504517,197.759064 512.342041,196.438721 510.478424,196.491547 
	C505.956635,196.619690 503.376129,194.757095 502.762848,189.964996 
	C502.295807,186.315979 499.983704,185.660492 497.088348,187.933167 
	C494.730865,189.783676 492.394257,191.675278 490.184753,193.697693 
	C464.624268,217.094330 439.131927,240.565659 413.515839,263.901184 
	C407.770477,269.134979 402.154816,274.587433 395.650238,278.805176 
	C388.282928,271.062164 379.665405,265.385101 371.611145,259.011932 
	C369.366058,257.235443 367.999695,258.196350 366.450348,259.570374 
	C360.220154,265.095398 353.935974,270.563232 347.821136,276.213867 
	C337.545044,285.709808 327.401672,295.349304 317.162140,304.885071 
	C313.745300,308.067047 309.399231,309.817139 305.229706,307.715790 
	C300.221497,305.191864 297.768494,307.406647 295.026215,310.928375 
	C282.084198,327.548920 267.835083,342.875763 250.590866,355.186279 
	C244.974762,359.195557 239.903671,364.055267 233.473480,366.631897 
	C232.161407,365.364380 232.580322,364.120239 232.667831,363.034851 
	C234.290482,342.911041 237.907272,323.117584 244.117020,303.932404 
	C255.103363,269.989624 271.733032,239.183655 295.032227,211.869446 
	C318.378967,184.499435 345.439056,162.094681 377.471008,145.704224 
	C398.827972,134.776093 421.411835,127.925522 444.992828,123.451851 
	C463.361542,119.967041 481.716156,117.287971 500.369415,117.014038 
	C517.391541,116.764069 534.117004,119.045219 550.883118,122.354424 
	C577.561462,127.620010 603.102112,135.707611 627.110352,148.433563 
	C666.293762,169.203400 697.780701,198.639374 723.466248,234.550919 
	C725.452576,237.328125 726.884399,240.625824 729.940674,242.552719 
	C733.638977,240.617004 733.942200,238.081131 731.830750,235.074219 
	C729.822266,232.214020 727.744141,229.400406 725.627441,226.618973 
	C697.060608,189.080124 663.102478,158.044998 619.749329,138.138184 
	C583.763916,121.614525 546.072327,111.842369 506.536377,110.604729 
	C483.225861,109.875008 460.101837,113.207146 437.252716,118.247169 
	C398.567261,126.780357 363.412354,142.865021 332.147125,167.140549 
	C315.791901,179.839355 301.389130,194.627075 288.133179,210.575882 
	C262.562988,241.340393 245.198425,276.395569 234.779282,314.732758 
	C227.651093,340.960907 224.207947,367.904022 225.354813,396.171143 
M545.380737,409.138123 
	C533.343506,401.952850 520.657837,397.359680 506.351196,396.790771 
	C483.437134,395.879517 462.952911,402.205170 445.935150,417.248383 
	C422.928223,437.585815 412.522400,463.429749 415.090881,494.425232 
	C416.544006,511.960907 422.164520,527.477661 433.997925,540.621643 
	C440.155609,547.461304 447.231812,553.173828 454.628326,558.645081 
	C473.890106,572.893250 495.570129,575.880493 518.259888,571.738159 
	C537.513733,568.223022 553.499268,557.786377 566.580322,543.419556 
	C585.859192,522.245667 593.214233,497.255157 587.726135,469.060760 
	C582.687622,443.176300 568.418823,423.398499 545.380737,409.138123 
M293.730469,585.770630 
	C290.550720,582.835205 287.090668,580.147583 284.239288,576.921936 
	C271.090942,562.047668 256.887695,548.213501 242.378815,534.715759 
	C234.476440,527.364075 226.250214,520.142822 215.833618,516.334778 
	C206.436234,512.899414 197.176804,512.550476 188.786407,519.029114 
	C176.969284,528.153687 169.304260,554.054260 174.755219,567.921204 
	C180.343689,582.138000 188.556702,594.807861 199.479385,605.615479 
	C200.835098,606.956848 202.441879,608.141663 202.971268,610.240112 
	C200.785645,610.767944 199.118927,608.239441 197.054153,609.818298 
	C196.473190,611.804565 198.089981,612.760498 199.097916,613.974915 
	C206.117355,622.432373 215.239853,628.408264 224.127090,634.538574 
	C238.712601,644.599548 255.518570,649.681763 272.205841,655.001526 
	C282.509918,658.286438 292.665466,659.525696 302.991089,655.561584 
	C299.419800,652.662903 296.320129,649.416199 292.288605,647.376282 
	C278.004211,640.148621 264.571442,631.474670 250.935150,623.131165 
	C236.449036,614.267700 221.666351,605.889954 207.097168,597.159912 
	C204.481079,595.592346 201.046432,594.432312 200.658585,589.788818 
	C204.904465,590.602234 208.267532,592.321716 211.490768,594.241333 
	C221.218430,600.034729 230.743378,606.180603 240.595306,611.750488 
	C258.864014,622.078796 277.201080,632.314148 294.620941,644.012207 
	C301.190674,648.424011 306.451691,655.147522 315.972473,650.157959 
	C314.740479,652.644226 312.774536,652.837585 311.327454,653.802307 
	C309.971710,654.706116 307.186096,654.567139 308.034546,657.278015 
	C308.688812,659.368530 310.848236,659.600464 312.657166,659.479736 
	C319.372803,659.031738 326.073151,657.919983 331.477478,653.672668 
	C347.463348,641.109314 361.914551,626.771362 377.297882,613.504761 
	C379.801941,611.345337 379.750610,608.696777 377.591156,606.483032 
	C373.672638,602.466003 370.006775,598.085205 364.588196,595.433411 
	C358.298889,600.739136 352.713959,606.641724 347.102356,612.540955 
	C339.562469,620.467285 331.998352,621.057678 323.856873,613.844238 
	C313.763092,604.900940 304.098969,595.472839 293.730469,585.770630 
M622.544739,321.911621 
	C616.803040,314.485291 616.837036,314.251892 624.110657,307.968323 
	C625.242065,306.990967 626.449097,306.029907 627.326599,304.843414 
	C629.829163,301.459778 632.179321,302.171783 634.706787,304.781311 
	C638.065796,308.249390 641.354736,311.806427 644.942017,315.026459 
	C648.896484,318.576111 652.952026,317.208740 654.386658,312.142548 
	C655.110107,309.587982 654.679749,307.248535 653.430847,304.929138 
	C652.610046,303.404755 651.135620,301.987762 652.088867,299.546661 
	C654.845337,299.885712 656.737976,301.875000 658.943726,303.171906 
	C662.903198,305.499878 665.276428,304.487213 670.031982,298.924469 
	C672.859253,295.617218 671.505066,293.114532 668.914673,290.777374 
	C658.656982,281.522308 648.989624,271.622681 638.286194,262.847198 
	C636.701660,261.548126 635.435425,260.939240 633.789795,262.019989 
	C632.432251,260.377716 633.725037,257.943695 630.400269,256.473022 
	C607.194519,274.616028 588.650085,298.192200 566.532471,319.053436 
	C578.642151,327.854462 589.636414,336.464172 601.252136,344.132416 
	C616.277771,354.051758 616.492004,353.728729 628.294495,340.182068 
	C628.731689,339.680298 629.172791,339.174927 629.547791,338.627228 
	C632.113953,334.879547 632.724976,331.447357 628.515015,328.221985 
	C626.426758,326.622101 624.800842,324.418884 622.544739,321.911621 
M413.729980,588.244934 
	C404.967743,593.519348 404.870636,604.855347 397.322662,610.674316 
	C398.745453,613.582581 401.037384,613.526306 403.108673,613.989136 
	C408.265106,615.141174 413.790039,613.526428 418.752289,616.182373 
	C427.095490,620.647949 436.622650,619.673645 445.471405,621.858093 
	C447.709656,622.410645 450.197388,622.355774 452.390320,621.471619 
	C458.095978,619.170898 463.707703,619.537537 469.514679,621.177917 
	C474.965759,622.717651 479.400574,619.033752 477.730804,613.750793 
	C472.544983,597.343628 467.729919,580.473328 450.247040,572.049011 
	C448.472229,571.193787 446.940826,569.813416 445.342896,568.614868 
	C439.705353,564.386230 439.250488,564.335999 434.140442,569.530884 
	C427.822906,575.953308 421.037903,581.853943 413.729980,588.244934 
M718.951355,280.442566 
	C721.056641,278.550476 723.227234,276.725769 725.256958,274.755890 
	C744.588379,255.994064 762.978882,236.247330 783.846863,219.093307 
	C787.583557,216.021713 787.144226,214.668045 782.116943,210.838898 
	C766.170044,226.153183 750.531433,241.805420 734.201965,256.700287 
	C711.321960,277.570190 688.141541,298.126770 666.202942,319.982727 
	C646.611938,339.499878 626.188293,358.103333 605.986572,376.958954 
	C595.278503,386.953491 584.918518,397.320953 574.399414,407.517944 
	C569.782654,411.993286 574.998352,414.214661 576.778625,416.985779 
	C578.791260,420.118652 581.135986,418.269440 583.007874,416.486633 
	C588.302246,411.444122 593.517212,406.318115 598.753479,401.214691 
	C610.901978,389.374512 623.491272,377.994812 635.082397,365.570038 
	C640.617798,359.636627 643.762085,352.150635 649.733643,346.368591 
	C672.456909,324.366272 694.693298,301.862366 718.951355,280.442566 
M415.235779,643.407898 
	C403.631378,639.729858 392.563629,634.820618 382.073181,628.615234 
	C378.297272,631.656799 378.930115,634.019165 382.720917,635.870850 
	C388.250183,638.571899 393.716370,641.462341 399.429077,643.714966 
	C411.035034,648.291382 422.699646,652.766052 435.087097,654.911194 
	C439.654816,655.702209 443.910919,657.738831 446.520447,661.412231 
	C450.683197,667.272034 451.030304,667.745972 457.894257,665.435425 
	C462.946594,663.734619 467.912872,662.160767 473.479828,663.430054 
	C475.604401,663.914551 479.074768,664.700134 479.764221,660.660461 
	C480.453918,656.619324 478.206055,655.513855 474.679718,655.092285 
	C454.842133,652.720337 435.077881,649.921875 415.235779,643.407898 
M791.581665,199.822830 
	C791.637939,203.027069 793.175781,203.362518 795.297974,201.481232 
	C797.529419,199.503128 799.458557,197.188309 801.583862,195.085419 
	C825.355530,171.564606 851.458496,150.431015 874.228027,125.265205 
	C878.349243,126.611298 879.978882,132.674118 885.231018,134.351852 
	C885.023987,129.837723 878.753418,122.864662 872.663025,120.104691 
	C870.554932,122.604065 868.611328,125.324905 866.258789,127.627937 
	C853.780640,139.843170 841.147217,151.899765 828.669617,164.115555 
	C816.554932,175.975967 803.283142,186.622726 791.581665,199.822830 
M389.724457,580.024963 
	C387.761932,584.092468 393.183655,582.780457 393.679413,585.541138 
	C394.354797,589.301697 397.251587,588.828796 399.188995,586.626526 
	C407.008392,577.738281 416.381561,570.424011 424.263428,561.627502 
	C429.180756,556.139587 428.414368,552.310242 422.171143,548.117432 
	C417.952698,552.172302 413.651825,556.079346 409.612976,560.240662 
	C403.246002,566.800781 395.650604,572.102661 389.724457,580.024963 
M537.660339,157.856445 
	C539.578918,160.660645 541.214233,163.761703 544.996155,165.172562 
	C547.906494,158.191940 548.012817,150.980270 549.527771,144.088058 
	C549.804871,142.827301 549.350769,141.743088 547.897400,141.483444 
	C546.140869,141.169617 545.556946,142.255203 545.317139,143.743057 
	C544.800720,146.946152 544.257202,150.144897 543.634766,153.886841 
	C536.631470,150.460556 535.692993,142.000290 529.047913,138.457642 
	C526.437439,145.065292 526.549744,151.832474 524.656677,158.124176 
	C524.158936,159.778442 524.082092,161.804550 526.326050,162.071518 
	C528.775452,162.362900 528.392883,160.096954 528.726196,158.547424 
	C529.366577,155.570557 528.997986,152.294128 531.190369,149.503311 
	C534.611206,151.181961 535.265381,154.764954 537.660339,157.856445 
M358.567749,213.916260 
	C359.131836,212.718613 359.856415,211.569061 360.232239,210.314972 
	C361.863129,204.872833 360.435150,199.871094 356.489990,196.797150 
	C352.568146,193.741348 346.050110,193.245483 341.921356,195.722321 
	C337.378265,198.447739 335.852295,202.716400 336.490448,207.661835 
	C337.093445,212.334763 339.301544,216.446472 343.984070,218.021011 
	C349.212982,219.779251 354.154999,218.712280 358.567749,213.916260 
M322.520233,223.931244 
	C324.185974,225.606903 326.644043,226.662598 327.200348,229.608658 
	C321.112579,231.690643 314.383148,228.469193 308.320923,232.601929 
	C314.243073,237.712814 319.717133,242.458008 325.217651,247.172302 
	C327.078522,248.767166 328.079163,247.738708 328.895905,246.153458 
	C326.402283,242.220291 321.376404,240.901886 319.886627,236.109863 
	C325.869293,233.828522 332.172546,235.926239 338.918182,234.000854 
	C333.717651,227.611008 328.008759,223.381073 322.419067,219.034851 
	C321.437256,218.271469 320.272827,216.856369 318.983917,218.184174 
	C317.473145,219.740524 319.061951,220.857880 320.056885,221.906464 
	C320.625061,222.505280 321.311981,222.991455 322.520233,223.931244 
M682.993774,238.498627 
	C685.311768,236.123016 687.673340,233.787643 689.925720,231.351364 
	C690.787720,230.419037 690.951355,229.252151 689.872192,228.253952 
	C688.941162,227.392700 688.020691,227.767715 687.188538,228.415985 
	C685.748535,229.537811 684.328308,230.686798 682.931274,231.861832 
	C680.267334,234.102585 678.010803,233.109375 675.974304,230.948776 
	C673.939880,228.790283 671.354919,226.733658 674.065002,223.325516 
	C675.882019,221.040543 677.606262,218.681793 679.267151,216.494095 
	C677.983521,214.524628 676.796509,214.682343 675.728516,215.878326 
	C671.259705,220.882996 665.651184,224.493042 660.414246,228.562149 
	C658.887634,229.748306 657.624390,231.207062 659.458191,233.115860 
	C661.439087,235.177750 662.612915,233.376373 663.913330,232.095963 
	C668.430969,227.648071 669.682190,227.855118 673.644165,232.683640 
	C676.803406,236.533813 677.088806,239.597321 672.437439,242.408951 
	C671.095764,243.219955 669.429810,244.662842 670.874878,246.469315 
	C672.518127,248.523300 673.804260,246.472656 674.960327,245.513733 
	C677.514465,243.395065 679.961548,241.147247 682.993774,238.498627 
M376.903748,191.186493 
	C379.464050,186.638824 382.862518,188.423523 385.597534,190.544968 
	C388.306671,192.646362 390.063629,192.509079 392.273071,189.814407 
	C390.636169,188.940613 389.356110,188.186798 388.017395,187.557678 
	C385.421112,186.337585 384.435730,184.667526 385.047180,181.582489 
	C386.239227,175.568451 379.526031,170.487045 373.720856,172.917221 
	C371.282043,173.938141 369.113281,175.586563 366.753906,176.819885 
	C364.465729,178.015961 364.124603,179.566345 365.453461,181.688873 
	C368.014648,185.779892 370.345886,190.033066 373.160645,193.939301 
	C374.516022,195.820297 374.709991,200.506973 378.065308,198.764572 
	C381.594177,196.932068 377.187286,194.349945 376.903748,191.186493 
M493.302887,156.037842 
	C493.541565,157.925934 492.572205,160.428085 495.411438,161.060303 
	C496.897186,160.029083 496.536743,158.747482 496.737549,157.648529 
	C497.050293,155.936935 497.597961,154.279068 499.522034,153.940445 
	C501.376190,153.614090 502.637604,154.864243 503.637421,156.250977 
	C504.412323,157.325668 504.956787,158.572586 505.772369,159.610352 
	C506.983185,161.150879 508.378448,162.327591 510.229828,160.297363 
	C510.409363,158.226837 508.738159,157.023941 508.015411,155.405457 
	C507.254272,153.701050 507.316071,152.426636 508.726532,150.948410 
	C512.549133,146.942139 512.218872,143.214462 508.002991,139.709030 
	C503.246643,135.754181 498.107544,137.588516 493.307526,138.294922 
	C493.307526,144.184280 493.307526,149.662292 493.302887,156.037842 
M444.910889,167.241028 
	C447.402466,168.919571 449.063110,168.101532 448.510742,165.271210 
	C447.303772,159.086670 445.608978,152.995361 444.038483,146.885239 
	C443.687500,145.519669 442.854614,144.372360 441.163330,144.836273 
	C439.529510,145.284424 439.258209,146.560196 439.670776,148.010559 
	C440.399170,150.571442 440.563782,153.152206 440.437439,155.785004 
	C437.255737,156.548508 434.338043,157.889984 431.476990,157.778442 
	C427.602509,157.627396 428.168915,153.378479 426.751343,150.946365 
	C426.195618,149.992889 425.566772,149.296112 424.394897,149.732010 
	C423.215607,150.170670 423.054474,151.283142 423.347076,152.232788 
	C425.450073,159.057770 427.588409,165.873260 429.856506,172.644562 
	C430.208405,173.695084 431.441528,173.689392 432.595276,173.135406 
	C433.479248,170.620209 432.208618,168.352814 431.447998,166.048050 
	C430.913757,164.429123 430.990356,163.294083 432.612213,162.254272 
	C439.389740,157.908981 442.354828,158.964493 444.910889,167.241028 
M657.227173,196.327103 
	C655.749390,193.958527 653.888916,194.324951 651.621643,195.212738 
	C645.560181,197.586197 640.072144,201.018860 634.407410,204.130615 
	C631.188538,205.898804 631.278381,207.586105 634.589661,209.409851 
	C638.359619,204.385315 641.409302,208.570618 644.810791,210.023438 
	C649.907471,212.200272 647.007629,217.159119 648.468384,222.212173 
	C654.799194,213.847076 655.453308,205.180542 657.227173,196.327103 
M468.647858,157.814667 
	C466.521210,151.505936 474.852386,154.793335 475.260803,150.605820 
	C473.889313,148.806747 471.951141,149.526962 470.221893,149.492401 
	C468.638458,149.460754 467.099518,149.356506 466.887238,147.343185 
	C466.682678,145.403290 468.118195,144.755066 469.621918,144.367065 
	C471.065887,143.994446 472.564026,143.837250 474.022736,143.514740 
	C475.653442,143.154221 476.878601,142.457626 476.011230,140.212448 
	C471.718414,139.477386 467.564087,141.012634 463.328033,141.448898 
	C461.937195,141.592133 461.381195,142.600525 461.571594,143.970230 
	C462.371124,149.722443 463.162292,155.475922 463.994781,161.223389 
	C464.325714,163.508133 465.410919,164.910767 468.024384,164.466614 
	C470.475037,164.050095 472.977997,163.883255 475.389771,163.316498 
	C476.938385,162.952576 479.707611,163.509171 479.168030,160.600342 
	C478.696533,158.058563 476.633026,158.825180 474.741608,159.030167 
	C472.806671,159.239883 470.579132,161.100189 468.647858,157.814667 
M585.473755,179.117874 
	C591.666138,181.755371 596.036987,180.459015 599.327881,174.682449 
	C601.052795,171.654678 602.372009,168.392487 603.817810,165.210419 
	C604.489868,163.731247 605.660461,161.884125 603.471680,160.912979 
	C601.440063,160.011536 601.127441,162.243256 600.487976,163.429184 
	C598.675293,166.790817 597.515686,170.494431 595.094543,173.541275 
	C592.729309,176.517685 589.758362,175.998611 586.967651,174.662323 
	C584.315674,173.392471 583.149414,171.125839 584.042114,168.018723 
	C584.927185,164.938232 586.639648,162.266098 587.914307,159.385162 
	C588.651550,157.718979 590.534119,155.605698 587.635742,153.847824 
	C587.127014,154.201904 586.592468,154.385040 586.375549,154.754608 
	C584.521484,157.913162 582.629211,161.055420 580.931824,164.298584 
	C577.737488,170.401947 578.954773,174.764847 585.473755,179.117874 
M620.660034,168.933334 
	C616.951843,171.573608 617.981567,174.094101 621.340515,175.662811 
	C625.581909,177.643585 624.593445,179.698151 622.381653,182.531418 
	C620.142395,185.399765 618.188232,188.502304 616.251831,191.591629 
	C614.764343,193.964996 615.419495,195.592590 618.502747,196.304810 
	C621.107178,191.982758 623.624817,187.703049 626.247864,183.488983 
	C627.888855,180.852615 630.044922,179.881638 632.939209,181.799393 
	C633.849609,182.402649 634.725098,183.398468 636.187561,182.739609 
	C637.108276,181.064819 638.360107,179.493866 635.648010,177.902603 
	C630.787231,175.050659 626.065674,171.961380 620.660034,168.933334 
M407.114624,160.636887 
	C408.798187,159.950073 410.095184,158.985031 409.373505,156.897034 
	C409.004730,155.829971 408.010071,155.176147 407.009552,155.616150 
	C402.154510,157.751251 397.332855,159.968918 392.568176,162.298065 
	C391.441681,162.848724 391.111969,164.122650 391.757812,165.336884 
	C392.330170,166.412888 393.373474,166.676071 394.268829,165.939667 
	C399.786194,161.401718 400.694550,166.217941 402.319824,169.792908 
	C404.118011,173.748230 405.452942,177.974915 408.050110,181.472672 
	C411.212433,179.994507 410.714325,178.079727 409.892303,176.132141 
	C408.730255,173.378998 407.414154,170.686478 406.356995,167.894913 
	C405.497864,165.626328 404.178955,163.235306 407.114624,160.636887 
M402.498535,215.620880 
	C402.071350,218.528687 399.347992,219.738144 397.672913,221.958664 
	C398.244415,223.139511 398.894958,224.283829 399.360657,225.498962 
	C399.885101,226.867371 400.242920,228.299622 400.650452,229.629745 
	C408.469818,230.554962 408.469818,230.554962 411.168335,221.410797 
	C408.437012,219.912567 405.983643,218.038254 404.669708,214.964355 
	C404.234314,213.945786 403.357117,214.260391 402.498535,215.620880 
M595.834839,229.392761 
	C602.879028,230.472931 599.324402,223.649841 603.469055,220.798080 
	C598.508057,220.618240 597.609436,216.957443 594.434082,214.942734 
	C593.288086,218.115723 590.567871,219.564087 588.532349,221.927246 
	C590.433716,224.735016 589.576233,229.704758 595.834839,229.392761 
M380.561462,594.912781 
	C382.425293,596.567383 383.694061,599.175232 388.017090,599.107239 
	C384.598572,593.243530 380.318420,589.248352 376.265869,585.090210 
	C375.623230,584.430786 374.747253,584.494629 374.054443,585.194702 
	C373.198761,586.059326 373.294708,587.106567 373.983643,587.889282 
	C375.948090,590.121155 378.034576,592.245728 380.561462,594.912781 
M402.846802,652.311523 
	C400.224091,650.958374 397.607391,650.111389 394.673859,652.298096 
	C396.370483,654.892883 398.931732,655.032532 401.244080,655.456726 
	C403.187531,655.813232 404.006531,654.839478 402.846802,652.311523 
z"/>
<path fill="#000000" opacity="1.000000" stroke="none" 
	d="
M184.241028,754.000000 
	C184.256958,766.827209 184.302338,779.154480 184.281799,791.481628 
	C184.267960,799.788513 183.488495,808.298401 192.167389,814.035522 
	C187.349335,816.889954 182.932770,815.841003 178.772217,816.141785 
	C170.470673,816.741821 170.689133,816.549805 168.338593,808.610657 
	C166.832977,803.525391 165.051483,798.389771 162.501862,793.768799 
	C152.269241,775.223145 144.959610,755.287048 134.978958,736.634094 
	C134.436646,735.620605 133.956711,734.573730 133.344193,733.332581 
	C131.829865,734.404419 132.320969,735.798157 132.332123,736.924744 
	C132.534668,757.404724 132.905777,777.883850 132.949631,798.363831 
	C132.961426,803.874878 134.723862,808.011169 139.279907,811.072998 
	C140.743759,812.056824 142.407700,813.125366 142.057617,815.243530 
	C141.504013,816.279419 140.632019,816.266418 139.819626,816.266968 
	C130.494049,816.273438 121.168350,816.281799 111.843033,816.228333 
	C110.439285,816.220276 108.561363,816.737671 108.026260,814.796814 
	C107.521950,812.967834 108.525215,811.620056 110.202072,810.781616 
	C116.845894,807.459595 118.832985,801.950317 118.775993,794.747498 
	C118.555878,766.929749 118.592842,739.108276 118.795670,711.290100 
	C118.840790,705.101929 116.513832,700.748474 111.460037,697.544678 
	C109.662178,696.404968 107.522644,695.404663 108.644142,691.919067 
	C116.546799,691.919067 124.629753,691.876465 132.711533,691.954895 
	C134.340469,691.970642 135.328430,693.147522 136.010574,694.630127 
	C146.862381,718.216003 157.738968,741.790466 168.867966,765.927246 
	C169.943008,756.984375 169.687622,748.513794 169.690277,740.055298 
	C169.693665,729.227417 169.545486,718.396912 169.747269,707.572876 
	C169.828903,703.194275 168.771408,699.729858 164.914307,697.373596 
	C163.031189,696.223206 162.013535,694.662903 163.029419,692.099365 
	C173.632858,692.099365 184.311203,692.099365 195.290100,692.099365 
	C194.941467,695.632629 192.192001,696.790100 190.349197,698.436523 
	C186.078888,702.251770 184.136993,706.720520 184.227631,712.520935 
	C184.441040,726.177368 184.262421,739.839905 184.241028,754.000000 
z"/>
<path fill="#000000" opacity="1.000000" stroke="none" 
	d="
M817.109314,696.891113 
	C815.794189,695.601929 814.572754,694.634888 814.953369,692.284180 
	C825.746277,692.284180 836.626526,692.284180 847.336243,692.284180 
	C847.972168,693.914856 847.320190,694.866638 846.533752,695.336975 
	C841.023926,698.631592 841.111328,703.868042 841.153381,709.358704 
	C841.233826,719.851929 841.452209,730.360535 840.499268,740.834534 
	C840.210632,744.007385 841.003174,745.933044 844.712463,745.981384 
	C852.705261,746.085388 860.699463,746.330383 868.683899,746.711182 
	C872.328247,746.885010 873.925476,745.620361 873.603455,741.845398 
	C872.554016,729.542175 872.866638,717.201538 872.826904,704.873962 
	C872.816833,701.756531 871.747498,699.414734 869.242615,697.620605 
	C867.489990,696.365295 865.664612,695.096252 866.106384,692.058044 
	C876.782410,692.058044 887.449829,692.058044 898.044983,692.058044 
	C898.910767,694.811829 896.935669,695.598145 895.525208,696.612488 
	C890.964172,699.892395 889.085327,704.190002 889.116760,709.889832 
	C889.281799,739.888062 889.280579,769.888062 889.131409,799.886475 
	C889.106140,804.969299 891.080017,808.447083 895.079102,811.195129 
	C896.635254,812.264404 898.842590,812.886963 898.817932,815.684509 
	C887.351929,815.684509 875.929504,815.684509 864.595459,815.684509 
	C864.139648,813.021301 865.761108,812.434265 867.001038,811.799683 
	C871.409302,809.543518 872.839539,805.927185 872.853699,801.130188 
	C872.888184,789.471558 872.409424,777.789917 873.632263,766.162292 
	C874.066406,762.034668 872.359436,760.319702 868.323914,760.354675 
	C860.991333,760.418213 853.657410,760.396484 846.324646,760.336487 
	C842.475586,760.304993 841.096375,762.140137 841.154053,765.914917 
	C841.324524,777.079285 841.402649,788.249390 841.232178,799.412903 
	C841.155823,804.416504 842.943665,808.092163 847.081665,810.777100 
	C848.710327,811.833862 850.646362,812.745667 850.430786,815.723145 
	C838.436707,815.723145 826.462769,815.723145 814.468750,815.723145 
	C813.618530,812.884155 815.818542,812.119507 817.440491,811.169495 
	C822.734375,808.068787 824.772034,803.510864 824.742920,797.426147 
	C824.607239,769.093689 824.547546,740.759155 824.775879,712.427856 
	C824.829102,705.817810 823.006592,700.699524 817.109314,696.891113 
z"/>
<path fill="#000000" opacity="1.000000" stroke="none" 
	d="
M640.717773,691.006592 
	C654.155334,692.864014 667.098083,689.914734 680.064514,690.841309 
	C682.881042,691.042603 685.722717,690.863159 688.550659,690.940491 
	C692.084961,691.037109 693.510193,693.371948 691.344055,695.775940 
	C684.949707,702.872925 687.031250,711.215820 687.605469,719.067139 
	C689.062134,738.982422 690.118103,758.901489 690.338318,778.863708 
	C690.450439,789.028137 682.925110,799.573059 673.265076,802.846863 
	C667.058533,804.950317 660.633972,805.805908 654.082214,805.261963 
	C644.057190,804.429565 632.831177,791.703430 632.678894,780.804749 
	C632.536987,770.653137 632.909546,760.490784 632.619629,750.345703 
	C632.182617,735.052185 631.330383,719.770874 630.740173,704.481079 
	C630.614990,701.237976 628.549683,699.415833 626.392700,697.559814 
	C624.407776,695.851929 622.069519,694.427551 621.459473,690.978943 
	C627.828735,690.978943 634.037292,690.978943 640.717773,691.006592 
M646.016357,739.499329 
	C646.462097,750.142822 646.797546,760.792419 647.386169,771.427979 
	C647.919617,781.065247 653.586609,787.164001 662.290344,787.875732 
	C668.604431,788.391968 673.286316,784.868408 673.464417,778.555603 
	C674.004944,759.401062 674.003418,740.229370 671.503357,721.187073 
	C670.705139,715.107727 669.253967,709.060242 667.502686,703.176453 
	C666.032043,698.235596 661.915222,696.037354 657.063232,696.613586 
	C647.966553,697.694031 647.399658,697.686707 646.913330,705.043518 
	C646.177979,716.166748 646.271912,727.344849 646.016357,739.499329 
z"/>
<path fill="#000000" opacity="1.000000" stroke="none" 
	d="
M534.366333,717.902710 
	C533.108643,714.134460 529.422974,712.501221 527.908203,708.129150 
	C533.735229,707.343384 539.237183,707.451843 544.719971,708.092285 
	C546.313477,708.278442 546.749146,710.131165 547.443176,711.448181 
	C552.950439,721.898804 557.646484,732.782593 564.053833,742.750427 
	C565.425171,744.883850 566.230469,747.575073 569.813049,749.168518 
	C568.634399,735.236755 571.964966,721.806519 566.842468,708.215698 
	C573.231506,708.215698 579.078186,708.215698 585.780701,708.215698 
	C581.961487,717.963867 583.423279,727.764465 583.340637,737.450439 
	C583.166443,757.882080 583.287598,778.316223 583.287598,799.020203 
	C576.960266,800.629272 574.838013,799.783875 571.743530,792.515930 
	C566.269165,779.658203 561.587036,766.443237 554.082581,754.533997 
	C552.062561,751.328308 550.366943,747.885071 546.896362,745.218384 
	C546.918945,754.404846 546.209045,763.499817 546.406921,772.592407 
	C546.603821,781.644897 543.566345,791.278564 551.043579,799.564270 
	C543.528320,799.681946 536.612610,799.393005 528.618835,800.177307 
	C535.063843,791.061890 532.766724,781.553467 533.312622,772.655273 
	C534.422119,754.570862 533.131287,736.387085 534.366333,717.902710 
z"/>
<path fill="#000000" opacity="1.000000" stroke="none" 
	d="
M381.238037,758.401978 
	C370.314178,759.547668 371.427795,757.827942 371.264587,768.835266 
	C371.175842,774.822693 371.460205,780.826294 370.511566,786.780029 
	C370.037445,789.755737 370.902344,792.350281 372.771118,794.688965 
	C373.984222,796.207031 375.566345,797.537598 375.976593,800.587158 
	C368.253448,800.190735 360.787750,800.214844 352.239838,800.973816 
	C354.891388,795.138489 355.923340,789.960876 356.161926,784.490173 
	C356.466644,777.503357 356.803711,770.520630 356.676056,763.535339 
	C356.475128,752.538879 357.215210,741.582947 357.632965,730.609314 
	C357.920685,723.051270 358.949219,715.176208 351.651703,708.684753 
	C358.692444,706.936462 364.723206,706.807556 370.758942,707.160583 
	C372.936920,707.287903 373.177216,708.812622 372.562958,710.819458 
	C369.364105,721.270020 371.979218,731.938599 371.577240,742.500671 
	C371.497253,744.602539 373.038849,745.718628 375.257172,745.670471 
	C376.753876,745.638000 378.254120,745.696655 379.751068,745.756897 
	C391.841156,746.243225 390.797638,747.628174 390.807892,734.747925 
	C390.809204,733.083191 390.777649,731.418396 390.764496,729.753662 
	C390.706360,722.397827 392.514587,714.566162 383.847015,708.672913 
	C393.072998,706.689697 400.813782,706.556458 408.441254,707.028076 
	C408.743652,707.847778 409.048462,708.266541 408.943420,708.447998 
	C404.396637,716.301880 405.772827,724.747009 406.184235,733.186890 
	C406.898529,747.841675 405.349701,762.431885 404.453369,777.043213 
	C404.026886,783.995178 404.054626,791.041077 407.314728,797.571289 
	C407.735016,798.413147 408.058228,799.470642 406.591583,801.181030 
	C401.121552,799.641418 394.936157,800.237488 387.859985,800.607483 
	C392.193176,792.589722 390.756226,784.874329 390.862091,777.301147 
	C390.913147,773.648804 390.793335,770.020203 391.393311,766.357178 
	C392.422180,760.075378 391.020142,758.598206 384.677032,758.378418 
	C383.679474,758.343811 382.679321,758.383179 381.238037,758.401978 
z"/>
<path fill="#000000" opacity="1.000000" stroke="none" 
	d="
M510.401459,756.270752 
	C510.040192,757.023132 509.624420,757.581055 509.754211,757.943909 
	C514.377380,770.867859 515.682861,784.998047 523.791138,796.658325 
	C524.438660,797.589478 525.277771,798.507874 524.576904,800.416260 
	C520.119507,801.277527 515.380981,800.353088 510.697754,800.044617 
	C508.588287,799.905640 508.200897,797.564514 507.617126,795.878967 
	C504.513184,786.917358 501.627289,777.876770 498.338593,768.984558 
	C497.175568,765.839966 497.002258,760.827271 491.819061,761.650085 
	C486.722534,762.459106 488.743225,767.097229 488.349121,770.279175 
	C488.104919,772.250671 488.153961,774.276184 488.249481,776.268921 
	C488.631104,784.229126 486.130463,792.629272 493.098816,799.889771 
	C485.120605,799.889771 478.493408,799.889771 470.898590,799.889771 
	C476.786346,791.600952 473.990997,783.265503 474.013275,775.115967 
	C474.053802,760.302917 474.550323,745.491638 474.726746,730.678101 
	C474.816315,723.159668 476.446198,715.321411 470.453827,709.241821 
	C471.152740,708.502075 471.362427,708.077820 471.590668,708.067627 
	C482.556824,707.577087 493.581299,706.757202 504.466705,708.347046 
	C515.340637,709.935303 521.618042,718.285217 520.992859,729.213806 
	C520.419739,739.234070 518.223022,748.676331 510.401459,756.270752 
M505.654846,733.210754 
	C505.629272,730.887817 505.855286,728.528625 505.527618,726.249146 
	C504.763000,720.930359 500.032562,718.343201 492.705933,718.968933 
	C487.642059,719.401367 488.593750,723.481323 488.406097,726.511780 
	C488.078217,731.807007 488.132416,737.132568 488.195587,742.443420 
	C488.264130,748.206299 489.787567,749.447510 495.504791,748.576111 
	C498.975342,748.047058 501.724426,746.230347 503.522919,743.230408 
	C505.190704,740.448425 505.026825,737.166809 505.654846,733.210754 
z"/>
<path fill="#000000" opacity="1.000000" stroke="none" 
	d="
M299.329254,753.298523 
	C295.222504,755.593140 294.745087,758.576294 296.368896,762.365479 
	C301.335724,773.956055 302.116852,787.083557 309.369995,797.848694 
	C309.823303,798.521484 309.994995,799.396118 309.296783,800.307312 
	C304.795227,800.307312 300.182434,800.252014 295.571838,800.329346 
	C293.068085,800.371399 292.041748,799.161377 291.683014,796.800903 
	C290.093384,786.341431 286.113861,776.627136 282.219391,766.887573 
	C281.246063,764.453430 280.338348,762.262634 276.932983,762.959595 
	C273.402039,763.682129 274.323425,766.336975 274.346985,768.491089 
	C274.408813,774.145935 274.859741,779.802856 274.753601,785.451355 
	C274.649109,791.012085 277.974548,795.377075 280.235779,801.389160 
	C271.713470,799.614502 264.040527,800.799744 256.653870,800.383484 
	C255.931473,798.696838 256.499817,797.708191 257.233337,797.162781 
	C261.741180,793.811096 262.060028,789.116821 261.630798,784.139282 
	C259.881256,763.849854 260.690247,743.519836 260.856262,723.208679 
	C260.900116,717.842896 260.092377,713.077332 256.442352,709.300049 
	C256.981384,708.556946 257.159393,708.082825 257.354156,708.075867 
	C268.133301,707.689331 278.938385,706.736023 289.662659,708.608459 
	C297.087250,709.904907 301.451660,714.842041 302.980011,721.857605 
	C304.612701,729.352417 304.794922,737.023621 303.643921,744.692688 
	C303.153198,747.962280 301.977264,750.759033 299.329254,753.298523 
M290.731049,739.059509 
	C290.755707,735.912476 290.889771,732.761719 290.784027,729.619080 
	C290.496216,721.065002 287.237671,718.140991 278.753479,718.183594 
	C275.182678,718.201538 273.455200,719.744751 273.403839,723.154480 
	C273.291473,730.609009 273.277740,738.065125 273.255432,745.520752 
	C273.251953,746.679443 273.375732,747.789001 274.644409,748.458069 
	C279.873566,751.216064 289.877014,745.932190 290.731049,739.059509 
z"/>
<path fill="#000000" opacity="1.000000" stroke="none" 
	d="
M796.374023,733.714417 
	C801.030884,749.579529 804.929016,765.217285 808.351685,780.975647 
	C809.660461,787.001282 810.722534,793.128418 816.199280,797.157837 
	C816.976440,797.729614 817.539612,798.668701 817.102905,799.806091 
	C816.347839,801.091980 815.165161,800.777527 814.006897,800.661926 
	C808.195801,800.082031 802.381714,800.073303 796.567200,800.624878 
	C795.415405,800.734192 794.155640,801.030396 793.338867,799.931030 
	C792.478638,798.773193 793.213867,797.765259 793.881287,796.770813 
	C797.883545,790.807434 794.986816,784.946533 793.498840,779.108643 
	C793.070740,777.429077 791.398865,777.081604 789.835205,777.091248 
	C785.008606,777.121033 780.182495,777.232971 775.355896,777.260559 
	C772.974976,777.274170 771.777649,778.344666 771.328003,780.737915 
	C770.654297,784.323486 770.002380,787.973267 768.736511,791.370483 
	C767.499817,794.689880 770.035950,796.981262 770.672363,800.103333 
	C763.868347,800.103333 757.522217,800.103333 750.999207,800.103333 
	C750.999207,799.110840 750.735229,798.282898 751.037659,797.860779 
	C759.261047,786.383118 758.818787,772.314697 762.286377,759.459839 
	C766.301270,744.575745 768.926880,729.316162 772.117859,714.211609 
	C772.558655,712.125061 772.783325,709.992859 773.149719,707.611084 
	C778.657898,707.611084 784.058044,707.611084 789.668701,707.611084 
	C791.919678,716.341370 794.107727,724.827759 796.374023,733.714417 
M775.454224,762.294006 
	C777.367676,764.924683 783.905457,766.559753 786.871155,765.041504 
	C790.260376,763.306458 788.498108,760.458069 788.157288,758.017944 
	C787.791443,755.398315 787.312256,752.772095 786.598694,750.228394 
	C785.204651,745.259521 784.608337,740.010864 781.640869,734.538757 
	C779.427795,744.162109 777.431946,752.840759 775.454224,762.294006 
z"/>
<path fill="#000000" opacity="1.000000" stroke="none" 
	d="
M245.294708,733.031738 
	C245.572205,746.476562 245.928772,759.449707 246.079483,772.425354 
	C246.186142,781.609558 243.684494,789.802856 236.397217,796.051331 
	C228.985870,802.406311 220.404770,803.713318 211.630630,800.555176 
	C203.212769,797.525269 198.073288,790.933594 197.368408,781.759033 
	C196.142822,765.807129 196.868530,749.831604 197.337555,733.866577 
	C197.376587,732.537659 197.759277,731.183716 197.597977,729.889282 
	C195.306396,711.499390 213.220108,703.822754 227.898972,707.365112 
	C239.339478,710.126099 244.733597,717.999512 245.294708,733.031738 
M231.927933,739.510437 
	C231.874069,736.013184 231.882980,732.513672 231.752518,729.019226 
	C231.522217,722.849976 226.426895,717.441467 220.936203,717.439209 
	C214.346268,717.436523 210.247696,721.772705 210.223495,729.098083 
	C210.171204,744.920654 210.187927,760.743958 210.278549,776.566345 
	C210.323837,784.475952 214.143616,788.658875 221.048203,788.708069 
	C227.523972,788.754211 231.614594,784.560730 231.766663,776.977600 
	C232.010345,764.824341 231.907043,752.664124 231.927933,739.510437 
z"/>
<path fill="#000000" opacity="1.000000" stroke="none" 
	d="
M421.580200,716.037659 
	C419.603607,713.393250 417.739716,711.139526 415.905090,708.921265 
	C417.049896,707.308289 418.503204,707.769958 419.740082,707.764832 
	C431.905365,707.713989 444.074799,707.900391 456.234467,707.630798 
	C461.333466,707.517700 463.191345,709.298523 462.416077,714.332092 
	C462.039734,716.775635 462.355652,719.322266 462.305298,721.821106 
	C462.278381,723.156982 462.270355,724.643127 460.617432,725.057800 
	C459.065765,725.447021 457.331696,725.227600 456.725677,723.631470 
	C454.937897,718.922546 451.095428,719.263550 447.199768,719.269653 
	C434.525665,719.289734 434.514648,719.251953 434.369232,732.189209 
	C434.333649,735.354675 434.409363,738.521179 434.408783,741.687195 
	C434.408142,745.366211 436.073273,747.196106 439.905518,747.091919 
	C444.523987,746.966309 449.148468,747.062134 454.028870,747.062134 
	C454.310486,751.168457 452.300690,754.581848 451.568909,758.234924 
	C451.157715,760.287720 449.029602,759.907776 447.346100,759.802979 
	C434.401459,758.997009 434.413300,759.003845 433.990631,772.133606 
	C433.867493,775.959045 433.527863,779.781189 433.517365,783.605530 
	C433.508118,786.976990 435.157532,788.843933 438.800049,788.695496 
	C442.294189,788.552979 445.804352,788.767273 449.295105,788.586304 
	C453.136017,788.387207 456.508270,787.341309 457.768677,782.992432 
	C458.445007,780.658752 459.993347,779.318665 463.248596,780.261536 
	C463.248596,786.046692 463.280365,791.965637 463.230865,797.884033 
	C463.214203,799.877380 461.729340,800.296875 460.114899,800.295715 
	C446.120117,800.286011 432.125305,800.258057 418.130646,800.200806 
	C417.695770,800.199036 417.262482,799.820496 416.725342,799.569336 
	C416.725342,799.053955 416.515228,798.345215 416.756317,798.120483 
	C421.980774,793.250854 420.978516,786.898865 420.759674,780.842468 
	C420.102997,762.670166 421.990143,744.559326 421.904907,726.405029 
	C421.889282,723.079224 421.766296,719.753906 421.580200,716.037659 
z"/>
<path fill="#000000" opacity="1.000000" stroke="none" 
	d="
M713.842773,719.564636 
	C709.839355,719.801514 707.209778,721.436279 705.802063,724.934692 
	C705.096924,726.687073 703.987671,728.434753 701.788574,727.911316 
	C699.660278,727.404785 700.103149,725.300293 700.072754,723.721191 
	C699.989563,719.395691 700.177063,715.060730 699.968384,710.743469 
	C699.819153,707.657104 701.002197,706.426514 704.013794,706.770691 
	C718.613403,708.439514 733.238220,707.719910 747.859070,707.193726 
	C750.946289,707.082642 752.504333,708.231079 752.314941,711.559326 
	C752.135620,714.710571 752.381775,717.884338 752.261963,721.041382 
	C752.197144,722.750244 753.108093,725.040161 750.927490,725.931763 
	C748.563599,726.898315 746.791992,725.213928 745.312561,723.621216 
	C743.279175,721.432190 741.614502,719.040527 737.975830,719.266724 
	C734.991577,719.452148 733.583252,720.307190 733.130798,723.520142 
	C730.613464,741.398376 731.500000,759.386108 731.087402,777.331543 
	C731.030151,779.820496 731.007568,782.335510 730.628601,784.785889 
	C730.035645,788.619385 730.510864,792.004700 733.248901,794.991394 
	C734.553650,796.414734 735.949707,798.062561 734.798401,800.183655 
	C727.139099,800.183655 719.597900,800.183655 712.403137,800.183655 
	C711.639709,798.757812 711.572632,797.748230 712.237305,797.257263 
	C716.938721,793.784973 716.796753,788.835327 716.724243,783.756348 
	C716.465027,765.613892 717.902710,747.523376 718.494934,729.406555 
	C718.618286,725.633972 719.757996,721.044861 713.842773,719.564636 
z"/>
<path fill="#000000" opacity="1.000000" stroke="none" 
	d="
M337.098450,800.141968 
	C330.829803,798.895752 324.999023,800.086792 319.395081,801.255981 
	C318.133728,798.921387 318.380096,796.993896 319.256653,795.446533 
	C321.865662,790.841003 321.704315,785.887817 321.686035,780.878784 
	C321.636200,767.227295 321.598206,753.574707 321.733276,739.924316 
	C321.784149,734.779907 322.586426,729.639404 322.568909,724.498779 
	C322.550201,718.995300 319.792267,717.689514 315.178406,720.569458 
	C312.867828,722.011719 310.618469,725.287903 307.847198,723.535645 
	C305.313995,721.933838 306.740692,718.295593 306.762054,715.577637 
	C306.824677,707.619507 306.927277,707.533813 314.904266,707.654419 
	C324.070648,707.792969 333.215088,707.422485 342.342590,706.677612 
	C346.034149,706.376282 347.902802,707.751099 348.363861,711.506531 
	C348.788879,714.968567 349.641968,718.378906 349.312805,721.905945 
	C349.186798,723.256165 348.987305,724.660706 347.658569,725.348572 
	C346.196045,726.105957 345.172729,725.057556 344.155029,724.178650 
	C341.714050,722.070435 339.521851,718.044556 335.967316,719.823425 
	C332.466980,721.575195 334.459747,725.898987 334.467499,729.019470 
	C334.503479,743.498474 334.866730,757.976562 335.068451,772.455505 
	C335.121735,776.279785 335.006714,780.085938 334.493561,783.908875 
	C333.912445,788.237549 334.007233,792.556213 337.323090,796.126953 
	C338.315582,797.195801 339.069641,798.685608 337.098450,800.141968 
z"/>
<path fill="#000000" opacity="1.000000" stroke="none" 
	d="
M770.070984,835.521484 
	C776.592163,840.242065 781.655518,845.952881 787.032410,852.312012 
	C788.594727,847.524536 787.831909,843.268799 787.712036,839.143311 
	C787.591675,835.004028 789.758606,834.614136 793.000977,834.605591 
	C796.255188,834.596985 798.382812,835.022034 798.283813,839.135193 
	C798.059509,848.454773 798.249268,857.783630 798.145508,867.107361 
	C798.125488,868.909668 799.172180,871.561890 796.363525,872.125610 
	C793.689453,872.662292 790.869141,873.214417 788.582947,870.461548 
	C784.260803,865.257141 779.681824,860.265991 774.445801,854.318665 
	C774.023376,859.788452 773.712524,864.187439 773.331482,868.580383 
	C773.159302,870.565308 773.966736,873.490967 770.326721,872.875549 
	C767.701660,872.431763 763.687927,874.351013 763.796143,868.781677 
	C764.011963,857.670044 763.746460,846.548279 764.827026,835.517273 
	C766.524536,834.374512 768.119690,834.902405 770.070984,835.521484 
z"/>
<path fill="#000000" opacity="1.000000" stroke="none" 
	d="
M726.361572,834.916504 
	C742.516052,831.053711 753.626160,843.260803 753.302612,854.760498 
	C753.024658,864.641296 743.590637,873.287659 732.814270,873.307129 
	C723.148804,873.324585 714.034973,864.610291 713.587769,855.245728 
	C713.127075,845.598328 717.281006,838.969238 726.361572,834.916504 
M739.977478,860.416443 
	C743.398560,855.998413 743.947815,851.268860 741.010681,847.759338 
	C738.171387,844.366882 734.459961,842.709900 729.986267,844.292969 
	C726.238159,845.619202 723.766113,848.350281 723.509644,852.332092 
	C723.234070,856.609924 725.278015,859.942139 728.964844,862.247070 
	C732.844849,864.672729 736.221313,863.545288 739.977478,860.416443 
z"/>
<path fill="#000000" opacity="1.000000" stroke="none" 
	d="
M253.721252,849.045166 
	C256.044861,840.225464 261.495087,834.915649 270.071411,833.874146 
	C278.417725,832.860596 284.905365,836.787109 289.433624,843.761230 
	C293.582184,850.150391 293.313385,856.722717 289.368195,863.052002 
	C284.242554,871.275085 273.742920,875.471863 266.154999,872.593933 
	C257.454803,869.294128 252.169220,859.499573 253.721252,849.045166 
M262.635986,856.565125 
	C263.378571,858.270569 264.447388,859.735413 265.849213,860.961182 
	C269.983124,864.575989 274.302246,864.605713 278.404510,861.040955 
	C283.055420,856.999512 283.727722,852.565979 280.402344,847.867065 
	C277.507965,843.777222 273.302185,842.228333 269.112000,843.709106 
	C264.620117,845.296631 262.246094,849.603577 262.635986,856.565125 
z"/>
<path fill="#000000" opacity="1.000000" stroke="none" 
	d="
M238.417328,836.343140 
	C240.123642,837.101196 241.605911,837.481873 242.586197,838.714966 
	C240.560654,845.155884 238.410477,846.293762 232.786850,843.917908 
	C228.626755,842.160339 224.071869,843.462585 220.721634,847.386597 
	C217.636505,851.000061 217.355286,854.894470 219.868149,858.867065 
	C222.486450,863.006348 227.739639,864.982483 232.043640,863.698853 
	C233.048950,863.399048 234.015610,863.054993 234.151123,861.895935 
	C234.311844,860.521179 233.493469,859.664734 232.221573,859.414307 
	C229.164948,858.812439 228.680344,856.797363 229.204391,854.184143 
	C229.827438,851.077393 232.279282,850.806763 234.618484,851.205444 
	C237.878342,851.760925 241.270325,850.503418 244.895966,852.073486 
	C244.247482,856.980042 242.958405,861.816467 243.245224,866.789307 
	C243.348343,868.577393 241.876831,869.306152 240.607346,870.107544 
	C231.827576,875.650452 220.998383,874.584839 214.063019,867.493835 
	C207.401367,860.682617 206.137268,850.963379 210.978851,843.780334 
	C217.202942,834.546265 226.744354,831.624390 237.161774,835.764832 
	C237.470612,835.887573 237.768921,836.036926 238.417328,836.343140 
z"/>
<path fill="#000000" opacity="1.000000" stroke="none" 
	d="
M526.127319,833.673096 
	C537.348083,833.972473 546.147034,842.858704 546.169128,853.466797 
	C546.190002,863.495972 536.888977,872.661682 526.882874,873.395447 
	C516.418701,874.162720 501.863586,859.110840 509.041229,846.317505 
	C512.777832,839.657471 517.513611,834.433533 526.127319,833.673096 
M535.416748,848.267456 
	C531.759094,843.550903 527.450562,842.233521 522.980103,844.464783 
	C518.162354,846.869385 516.013855,851.142395 517.277039,855.807434 
	C518.860229,861.654297 523.900391,864.870239 529.235107,863.437378 
	C534.842407,861.931213 537.632446,855.693726 535.416748,848.267456 
z"/>
<path fill="#000000" opacity="1.000000" stroke="none" 
	d="
M684.213623,411.794006 
	C694.068848,418.945465 703.385986,426.141388 710.749329,435.577209 
	C712.792847,438.196014 716.327454,438.344910 719.258850,439.448914 
	C720.877869,440.058685 722.996521,439.698639 723.902893,441.747345 
	C717.683044,448.468719 705.934631,448.785492 699.809692,442.309753 
	C687.430786,429.221985 676.109680,415.322449 667.134216,399.611725 
	C663.987366,394.103485 660.329346,388.951630 654.967712,385.264404 
	C652.273682,383.411713 651.133179,380.535309 649.511047,377.137787 
	C652.947144,377.336609 654.657288,379.261932 656.572388,380.644196 
	C659.673645,382.882599 662.691467,385.240356 665.686523,387.620758 
	C668.244080,389.653503 670.691650,391.404694 670.827087,395.504669 
	C670.926392,398.511627 674.087402,400.769775 676.134521,403.151886 
	C678.626160,406.051147 681.338928,408.760284 684.213623,411.794006 
z"/>
<path fill="#000000" opacity="1.000000" stroke="none" 
	d="
M618.579224,859.719238 
	C621.977356,852.083252 625.404602,844.875183 628.376465,837.484070 
	C629.321228,835.134460 630.779419,834.588196 632.797729,834.274048 
	C635.041443,833.924744 636.738892,834.688416 637.680542,836.800964 
	C642.411987,847.415405 647.233459,857.992126 651.772583,868.688477 
	C653.070312,871.746643 652.850769,873.927246 648.057495,873.561340 
	C644.359009,873.279053 641.711487,873.295349 641.124268,868.855835 
	C640.884033,867.039734 639.128601,866.253723 637.277100,866.393555 
	C633.968445,866.643555 630.657227,866.910889 627.365479,867.319580 
	C623.881042,867.752258 625.081543,871.304749 623.524902,873.395386 
	C620.658508,873.667236 617.839417,872.932922 614.723572,871.854187 
	C615.463989,867.691406 616.957397,863.886536 618.579224,859.719238 
M634.581177,857.388672 
	C636.782288,854.328247 633.733704,852.787109 632.869934,850.301147 
	C629.290222,856.196594 629.420898,856.895752 634.581177,857.388672 
z"/>
<path fill="#000000" opacity="1.000000" stroke="none" 
	d="
M414.916931,840.169373 
	C419.585785,850.969849 424.091003,861.425781 428.612335,871.919189 
	C421.315247,874.527893 419.887787,874.067627 416.663910,868.394348 
	C415.928680,867.100403 415.031189,866.322571 413.556152,866.320679 
	C410.230011,866.316467 406.903778,866.345459 403.577606,866.363098 
	C402.256317,866.370117 401.072754,867.052551 400.928284,868.229553 
	C400.000458,875.788025 394.687225,872.919617 390.610352,873.023438 
	C389.373962,870.993652 390.610504,869.571106 391.248993,868.152771 
	C395.889252,857.845154 400.619354,847.577942 405.264435,837.272522 
	C406.076385,835.471069 407.011261,834.107300 409.246246,834.174805 
	C412.937836,834.286438 413.508545,837.368286 414.916931,840.169373 
M407.778259,858.094421 
	C409.042236,858.649963 410.649872,859.022339 411.262451,857.670471 
	C412.257874,855.473755 410.829681,853.765869 409.216522,851.961914 
	C407.597565,853.775024 406.439392,855.381348 407.778259,858.094421 
z"/>
<path fill="#000000" opacity="1.000000" stroke="none" 
	d="
M443.437531,834.193848 
	C447.277954,833.166382 450.687927,833.436646 454.078766,834.632690 
	C461.641083,837.300232 462.094727,839.839233 455.695618,845.642761 
	C453.444885,844.682434 451.279480,843.038452 448.582306,842.804443 
	C446.950043,842.662842 445.479645,842.905457 444.789276,844.486816 
	C443.980072,846.340515 445.437531,847.358948 446.765442,847.958496 
	C449.024872,848.978638 451.433960,849.663696 453.767456,850.524109 
	C460.872406,853.143799 463.920258,857.317444 462.460114,862.394531 
	C460.298859,869.909485 453.171143,874.924438 446.479584,873.741028 
	C443.169769,873.155762 440.113831,871.880127 437.021698,870.665771 
	C434.414124,869.641724 433.700836,867.863525 435.297119,865.593628 
	C436.803406,863.451660 437.900299,859.903320 441.700867,862.287231 
	C443.407867,863.358093 444.972168,864.617493 447.090454,864.583740 
	C449.011017,864.553223 450.950836,864.076416 451.467560,862.013062 
	C452.051514,859.681519 449.902649,859.487427 448.387787,858.943848 
	C447.136261,858.494812 445.866577,858.096741 444.613708,857.651245 
	C439.257294,855.747131 434.864319,852.455994 434.468933,846.558777 
	C434.073730,840.664978 437.794556,836.718628 443.437531,834.193848 
z"/>
<path fill="#000000" opacity="1.000000" stroke="none" 
	d="
M474.395081,863.458008 
	C476.733368,861.129761 478.813446,860.555359 481.014130,863.087585 
	C482.200836,864.453003 483.820587,864.739441 485.562805,864.668274 
	C487.494781,864.589355 489.500793,864.261902 489.936432,862.144836 
	C490.390747,859.937195 488.201202,859.679382 486.742920,859.024719 
	C484.171417,857.870422 481.285339,857.392517 479.023102,855.580688 
	C475.350525,852.639343 471.462769,849.694580 472.516663,844.157898 
	C473.432037,839.348938 479.535431,834.274902 484.781494,833.725708 
	C489.033875,833.280518 493.066010,834.067200 496.819214,836.175049 
	C498.762634,837.266541 501.183563,838.426880 498.880127,840.965576 
	C497.197968,842.819458 496.763306,847.449951 492.338745,844.822510 
	C489.303925,843.020447 486.217834,842.725281 482.985809,844.030579 
	C482.740845,846.972717 484.596436,847.867126 486.403961,848.662659 
	C488.075043,849.398132 489.839386,849.925293 491.572174,850.516235 
	C498.937897,853.028259 501.560547,856.821472 500.119507,862.901123 
	C498.572418,869.428345 491.478271,874.681580 485.291656,873.861084 
	C481.961761,873.419434 478.843842,872.314941 475.809845,870.887634 
	C472.153137,869.167297 470.885284,866.990540 474.395081,863.458008 
z"/>
<path fill="#000000" opacity="1.000000" stroke="none" 
	d="
M563.048584,850.902771 
	C562.982117,861.518188 569.979919,866.153320 578.758362,861.628662 
	C582.048035,859.933044 583.927673,862.275940 585.533752,864.098328 
	C587.386047,866.200012 585.114563,867.711365 583.678711,868.967773 
	C577.916321,874.010315 570.274414,874.737610 563.771057,870.971802 
	C556.211670,866.594666 551.453125,857.411987 552.974243,850.137329 
	C555.686707,837.164917 570.819519,830.025452 582.217163,836.410522 
	C584.648315,837.772461 587.770081,839.330750 585.343750,842.838440 
	C583.560608,845.416382 581.819092,848.411011 577.513184,845.021240 
	C572.502014,841.076111 567.097961,843.501099 563.048584,850.902771 
z"/>
<path fill="#000000" opacity="1.000000" stroke="none" 
	d="
M343.542908,834.651978 
	C351.118164,834.652161 358.246765,834.652161 365.349609,834.652161 
	C367.638733,842.011841 366.690826,843.402100 359.558990,843.408813 
	C356.901764,843.411316 354.235016,843.430481 351.590576,843.653992 
	C349.559479,843.825745 348.208313,844.838928 348.343842,847.216614 
	C348.474426,849.508362 349.954620,849.859375 351.763550,849.877014 
	C353.426361,849.893188 355.089783,849.923340 356.752167,849.897278 
	C359.405884,849.855652 361.191223,850.560791 361.352509,853.744019 
	C361.505249,856.758179 360.611938,858.552307 357.428467,858.785034 
	C357.101593,858.808960 356.770782,858.906311 356.461334,859.021912 
	C353.618195,860.083496 349.438477,857.619934 347.864349,861.119751 
	C346.730347,863.641052 347.458984,866.992188 347.315094,869.971130 
	C347.268585,870.934448 347.089935,871.891296 346.982635,872.762512 
	C345.012299,873.773254 343.165314,873.179016 341.383026,873.285461 
	C339.102325,873.421631 337.960358,872.271057 338.004120,870.016907 
	C338.216919,859.051514 338.440887,848.086243 338.688721,837.121643 
	C338.761902,833.885254 341.279419,834.858032 343.542908,834.651978 
z"/>
<path fill="#000000" opacity="1.000000" stroke="none" 
	d="
M673.681702,845.028381 
	C673.358459,854.373596 673.203857,863.341492 673.037170,872.309204 
	C673.034546,872.449829 672.884460,872.587708 672.737610,872.839050 
	C671.306458,873.821167 669.602905,873.094727 668.002380,873.275024 
	C664.711792,873.645630 663.612305,872.061951 663.665649,868.914978 
	C663.775696,862.431580 663.505188,855.939697 663.698181,849.460449 
	C663.820251,845.359863 662.294312,843.430542 658.159058,844.077515 
	C653.664673,844.780701 652.871338,842.304993 652.727356,838.555603 
	C652.577209,834.647522 654.324280,833.739685 657.839111,833.895447 
	C664.479919,834.189758 671.147156,833.950623 677.780396,834.333191 
	C684.684998,834.731445 685.622803,836.544617 683.304016,843.730957 
	C680.238831,844.651367 676.741394,841.773621 673.681702,845.028381 
z"/>
<path fill="#000000" opacity="1.000000" stroke="none" 
	d="
M305.303345,873.157837 
	C302.424774,872.341064 302.851746,870.271545 302.843384,868.527954 
	C302.796326,858.710266 302.942810,848.889954 302.762421,839.075378 
	C302.695496,835.432800 304.273041,834.646545 307.538116,834.589783 
	C311.131561,834.527283 312.092712,835.994141 312.040436,839.346863 
	C311.936737,845.998840 312.309845,852.657593 312.237366,859.310913 
	C312.202332,862.525391 313.347076,863.851990 316.600586,863.714539 
	C320.554840,863.547485 324.521484,863.674866 328.362854,863.674866 
	C330.074158,871.845825 329.091705,873.144958 321.746063,873.154663 
	C316.421234,873.161743 311.096436,873.196045 305.303345,873.157837 
z"/>
<path fill="#000000" opacity="1.000000" stroke="none" 
	d="
M886.887695,853.698730 
	C890.189758,853.534546 893.010559,853.387817 895.829041,853.204346 
	C897.369202,853.104004 899.007019,852.915588 899.291870,855.002930 
	C899.552307,856.910583 898.753357,858.277588 896.691833,858.534424 
	C894.880432,858.760010 893.056763,859.021057 891.237488,859.028809 
	C867.927673,859.128235 844.617615,859.185730 821.307678,859.248962 
	C820.475891,859.251221 819.642090,859.230530 818.812561,859.172668 
	C817.074585,859.051514 815.985107,858.196655 815.991394,856.365173 
	C815.998108,854.425537 817.303040,853.808838 818.973145,853.783752 
	C822.968323,853.723694 826.964355,853.696594 830.960022,853.695435 
	C849.441833,853.689880 867.923584,853.697754 886.887695,853.698730 
z"/>
<path fill="#000000" opacity="1.000000" stroke="none" 
	d="
M142.999298,859.273132 
	C133.166763,859.231018 123.834068,859.213989 114.501953,859.131470 
	C112.370056,859.112610 109.743782,859.361694 109.914322,856.078491 
	C110.075340,852.978577 112.720589,853.751953 114.524033,853.739929 
	C138.518066,853.579529 162.512604,853.496033 186.507004,853.390259 
	C188.440659,853.381775 190.271255,853.442139 190.342987,856.109497 
	C190.410370,858.614685 188.676636,858.608582 186.956894,858.634460 
	C172.471100,858.852173 157.985199,859.062195 142.999298,859.273132 
z"/>
<path fill="#000000" opacity="1.000000" stroke="none" 
	d="
M702.340698,835.651733 
	C703.784851,847.421265 702.728394,858.862244 703.073730,870.287415 
	C703.191345,874.179565 699.557190,872.888672 697.362061,873.164917 
	C695.193604,873.437805 692.779114,873.471863 692.775391,870.234375 
	C692.762756,859.287170 692.799194,848.340027 692.822815,837.392822 
	C692.826904,835.499878 693.934021,834.731140 695.683472,834.748047 
	C697.817627,834.768677 699.998596,834.307800 702.340698,835.651733 
z"/>
<path fill="#000000" opacity="1.000000" stroke="none" 
	d="
M601.325378,834.646240 
	C603.204163,834.767578 604.662720,834.882019 606.618347,835.035461 
	C605.651917,845.784241 607.555847,856.151794 607.322144,866.614563 
	C607.168030,873.513672 607.305542,873.524719 600.366638,873.332581 
	C599.398438,873.305725 598.433594,873.155029 596.638123,872.981628 
	C596.638123,860.904175 596.642456,848.969543 596.635315,837.034851 
	C596.633240,833.666565 599.072998,834.707947 601.325378,834.646240 
z"/>
<path fill="#000000" opacity="1.000000" stroke="none" 
	d="
M736.484497,438.533813 
	C734.909119,435.829407 732.736755,433.884399 731.906616,431.039307 
	C736.408508,431.762970 740.189331,435.520752 741.184326,440.189880 
	C739.062439,441.803528 737.942749,440.091248 736.484497,438.533813 
z"/>
<path fill="#000000" opacity="1.000000" stroke="none" 
	d="
M269.176910,437.276245 
	C296.248047,411.598328 324.557098,387.844391 351.310181,361.825928 
	C352.560913,364.321991 351.520874,365.179321 350.860352,366.027222 
	C338.894165,381.387543 328.808777,398.212128 315.185181,412.274780 
	C306.505402,421.234314 298.357605,430.767853 288.099487,438.092407 
	C286.492798,439.239594 284.965424,440.650879 283.800476,442.233765 
	C280.834900,446.263214 276.777191,448.256317 272.033752,449.100769 
	C266.519623,450.082397 261.361267,451.740814 257.427704,456.040649 
	C254.133011,459.642090 254.567764,462.133606 258.876038,464.109009 
	C261.996246,465.539703 266.736725,466.577362 266.128235,470.456299 
	C265.572815,473.997162 260.668152,474.593872 257.385345,474.792053 
	C253.062302,475.053070 250.640564,476.819916 249.635239,481.323425 
	C246.201019,478.299805 245.086670,474.633820 244.080719,471.034790 
	C240.011154,456.474854 235.799515,441.950073 233.932724,426.868469 
	C233.274261,421.548798 234.288834,418.031952 239.012955,414.227509 
	C256.383362,400.239014 273.281219,385.739136 285.258728,366.305084 
	C292.223541,355.004395 300.685883,344.621246 308.586884,333.908203 
	C309.950012,332.059937 311.879608,330.630341 313.541138,329.000824 
	C314.489594,328.070648 316.048248,327.254883 316.270355,326.170197 
	C318.554718,315.014099 331.300537,315.039154 336.293365,306.718719 
	C330.732697,328.190887 314.810242,344.091888 306.255280,363.955444 
	C309.613922,365.363403 311.187195,363.454926 312.749481,362.202545 
	C318.074554,357.933807 322.993835,353.184143 328.107971,348.679230 
	C339.459137,338.680237 351.401520,329.355896 362.901031,319.520508 
	C370.232697,313.249786 377.203461,306.557037 384.334961,300.052307 
	C390.532745,294.399231 391.420502,294.349518 398.429871,298.691071 
	C401.684906,300.707214 405.201447,302.328369 408.330963,304.513153 
	C412.335815,307.309082 415.156250,305.698730 417.764709,302.600433 
	C423.768921,295.468781 429.711578,288.285248 435.723267,281.159882 
	C438.515045,277.850891 441.384308,274.606018 444.266205,271.374634 
	C446.277374,269.119629 448.324005,267.046204 447.415894,263.488556 
	C447.004730,261.877869 448.255554,260.350281 449.353424,259.045532 
	C458.566010,248.096405 467.767731,237.138168 476.981628,226.190170 
	C478.331726,224.586029 479.576538,222.824173 482.185272,222.537796 
	C468.665924,256.521484 445.033264,284.235901 425.338226,314.310089 
	C430.586456,318.894104 432.588440,319.001038 436.424164,314.020660 
	C441.926483,306.876343 448.256592,300.488983 454.174011,293.726959 
	C454.810669,292.999420 455.338287,292.067413 456.655151,292.253174 
	C457.712036,294.437408 455.967590,295.993866 455.267517,297.721313 
	C451.587280,306.802368 447.002655,315.504883 444.825226,325.198059 
	C443.273773,332.104584 437.173004,334.582520 430.470367,331.903870 
	C417.539948,326.736328 406.018250,319.047028 394.308319,311.739838 
	C390.936066,309.635468 389.247955,310.372284 386.802521,312.816711 
	C360.713684,338.894684 332.549469,362.602600 302.581635,384.029785 
	C282.373932,398.478455 262.573914,413.368286 243.702072,429.500916 
	C241.364197,431.499420 238.432739,433.112305 238.287506,436.874847 
	C238.184189,439.551910 238.970047,440.971893 241.890259,440.912109 
	C248.718826,440.772247 255.549896,440.705627 262.379883,440.710480 
	C265.137024,440.712463 267.087646,439.310242 269.176910,437.276245 
z"/>
<path fill="#000000" opacity="1.000000" stroke="none" 
	d="
M207.513885,573.515625 
	C204.604126,571.837769 201.938248,570.451660 199.432617,568.819580 
	C197.692734,567.686218 194.936035,566.315979 196.308426,563.942139 
	C197.822311,561.323547 200.243408,563.439697 201.878891,564.531494 
	C215.186081,573.414734 229.368896,580.812195 243.097275,588.977661 
	C266.256989,602.752625 289.473083,616.432800 312.633362,630.206909 
	C314.379730,631.245544 316.476868,632.117554 317.411652,634.804932 
	C313.695374,635.165710 310.827087,634.116089 308.087128,632.564209 
	C292.022583,623.466187 275.849182,614.552917 259.935486,605.198059 
	C242.440033,594.913330 225.185593,584.218506 207.513885,573.515625 
z"/>
<path fill="#000000" opacity="1.000000" stroke="none" 
	d="
M259.157745,592.916809 
	C248.087097,586.417419 237.234421,580.260071 226.572159,573.789062 
	C217.620575,568.356201 208.881439,562.572388 200.075134,556.902222 
	C198.982376,556.198547 197.839966,555.364319 198.203705,553.513916 
	C200.850708,551.693176 203.221085,553.168396 205.400757,554.542847 
	C239.320328,575.931519 274.481873,595.237732 308.639221,616.222839 
	C311.788940,618.157898 315.774506,619.645691 316.005310,625.076416 
	C297.156281,614.425232 278.307251,603.774109 259.157745,592.916809 
z"/>
<path fill="#000000" opacity="1.000000" stroke="none" 
	d="
M294.100067,630.811279 
	C300.100677,635.165405 307.207336,637.475769 312.704071,643.980408 
	C301.520752,642.523621 197.582565,581.624329 195.109207,575.542847 
	C198.632172,574.059387 201.126541,576.484070 203.662750,577.917175 
	C221.208786,587.831543 238.433929,598.287354 255.657486,608.752502 
	C268.175812,616.358704 281.053833,623.372925 294.100067,630.811279 
z"/>
<path fill="#000000" opacity="1.000000" stroke="none" 
	d="
M294.671204,597.275940 
	C298.218994,599.473450 301.389832,601.550659 302.982788,605.538513 
	C284.935608,597.055725 268.056152,586.426392 251.240250,575.921936 
	C234.551910,565.497192 215.920044,557.736206 201.775879,543.503235 
	C206.399887,542.389465 255.601212,571.430969 294.671204,597.275940 
z"/>
<path fill="#000000" opacity="1.000000" stroke="none" 
	d="
M257.971130,568.101868 
	C240.992615,557.914185 224.262650,548.015259 208.390656,536.762085 
	C207.706650,536.277161 207.571548,535.345886 207.891434,534.358704 
	C209.950745,532.968079 211.661270,534.470581 213.280869,535.391907 
	C234.530457,547.479126 254.966553,560.895203 275.729553,573.777344 
	C277.630066,574.956482 279.502411,576.390625 281.059326,579.594360 
	C272.030304,577.193542 265.497681,572.019226 257.971130,568.101868 
z"/>
<path fill="#000000" opacity="1.000000" stroke="none" 
	d="
M344.867249,199.409180 
	C349.290619,197.999725 352.942810,198.584320 355.382538,202.262405 
	C357.036133,204.755356 357.165436,207.645218 355.357544,210.236420 
	C353.448975,212.971909 350.968475,214.868088 347.366760,214.144196 
	C344.221802,213.512131 341.778076,211.828888 340.993256,208.563904 
	C340.099792,204.846786 340.843781,201.613968 344.867249,199.409180 
z"/>
<path fill="#000000" opacity="1.000000" stroke="none" 
	d="
M371.224670,179.291016 
	C374.024323,177.198746 376.633911,174.728470 379.646912,177.987305 
	C381.161774,179.625748 381.827728,181.986511 379.768219,183.737839 
	C377.997192,185.243881 376.182770,187.911835 373.457764,186.427399 
	C370.976624,185.075821 368.916656,182.879105 371.224670,179.291016 
z"/>
<path fill="#000000" opacity="1.000000" stroke="none" 
	d="
M497.052338,143.341309 
	C498.010284,141.935989 499.113678,141.736069 500.288879,141.674255 
	C503.312225,141.515182 505.564178,142.697739 505.961914,145.808777 
	C506.272705,148.240173 504.538208,149.249374 502.246399,149.311813 
	C499.328949,149.391296 496.387787,149.503647 496.722412,145.208984 
	C496.760498,144.720337 496.823730,144.233643 497.052338,143.341309 
z"/>
<path fill="#000000" opacity="1.000000" stroke="none" 
	d="
M644.513611,202.803741 
	C647.307129,201.555038 649.825562,200.486923 652.961304,199.157028 
	C652.510864,203.213318 651.077637,206.112427 649.788391,209.607590 
	C647.325256,207.582016 644.046997,206.866989 644.513611,202.803741 
z"/>
</svg>